<svg width="627" height="242" viewBox="0 0 627 242" fill="none" xmlns="http://www.w3.org/2000/svg">
<g filter="url(#filter0_d_2_7)">
<rect x="6" y="2" width="230" height="230" rx="20" fill="#04BEEF"/>
<rect x="7.5" y="3.5" width="227" height="227" rx="18.5" stroke="black" stroke-width="3"/>
</g>
<path d="M93.4688 50.0483C92.0736 50.2334 90.8064 50.9578 89.9389 52.0662L71.6057 75.1023L59.4984 67.0308C58.9021 66.6303 58.2325 66.3515 57.5282 66.2104C56.8238 66.0693 56.0985 66.0687 55.3939 66.2085C54.6893 66.3484 54.0193 66.626 53.4222 67.0255C52.8252 67.425 52.3129 67.9384 51.9147 68.5363C51.5166 69.1342 51.2404 69.8049 51.1021 70.5098C50.9638 71.2147 50.966 71.94 51.1087 72.644C51.2513 73.3481 51.5316 74.017 51.9334 74.6125C52.3352 75.2079 52.8507 75.7182 53.4501 76.114L69.5932 86.876C70.7247 87.6294 72.0993 87.9266 73.4409 87.708C74.7824 87.4894 75.9916 86.7711 76.8253 85.6976L98.3494 58.7924C99.0344 57.9569 99.452 56.9344 99.5478 55.8582C99.6436 54.782 99.4132 53.7019 98.8867 52.7585C98.3601 51.815 97.5617 51.0519 96.5954 50.5685C95.6291 50.0852 94.5396 49.9039 93.4688 50.0483ZM115.666 66.1914V76.9534H191V66.1914H115.666ZM93.4688 98.4775C92.0736 98.6626 90.8064 99.387 89.9389 100.495L71.6057 123.532L59.4984 115.46C58.2939 114.657 56.8198 114.366 55.4005 114.65C53.9811 114.934 52.7328 115.77 51.93 116.975C51.1272 118.179 50.8358 119.653 51.1199 121.073C51.404 122.492 52.2403 123.74 53.4448 124.543L69.5878 135.305C70.7193 136.059 72.0939 136.356 73.4355 136.137C74.7771 135.919 75.9862 135.2 76.8199 134.127L98.3441 107.222C99.0285 106.386 99.4458 105.365 99.5417 104.289C99.6376 103.213 99.4077 102.134 98.8818 101.191C98.356 100.248 97.5585 99.4844 96.5932 99.0005C95.6278 98.5167 94.5392 98.3344 93.4688 98.4775ZM115.666 114.621V125.383H191V114.621H115.666ZM93.4688 146.907C92.0736 147.092 90.8064 147.816 89.9389 148.925L71.6057 171.961L59.4984 163.889C58.902 163.492 58.2331 163.216 57.53 163.077C56.8269 162.938 56.1033 162.939 55.4005 163.079C53.9811 163.363 52.7328 164.2 51.93 165.404C51.1272 166.609 50.8358 168.083 51.1199 169.502C51.404 170.921 52.2403 172.17 53.4448 172.972L69.5878 183.735C70.7193 184.488 72.0939 184.785 73.4355 184.566C74.7771 184.348 75.9862 183.63 76.8199 182.556L98.3441 155.651C99.0285 154.816 99.4458 153.794 99.5417 152.718C99.6376 151.643 99.4077 150.563 98.8818 149.62C98.356 148.677 97.5585 147.914 96.5932 147.43C95.6278 146.946 94.5392 146.764 93.4688 146.907ZM115.666 163.05V173.812H191V163.05H115.666Z" fill="white"/>
<path d="M276.84 106.2H264.1V97.38H299.66V106.2H287.06V144H276.84V106.2ZM311.16 145.05C307.426 145.05 304.463 143.463 302.27 140.29C300.076 137.117 298.98 132.8 298.98 127.34C298.98 120.713 300.66 115.673 304.02 112.22C307.38 108.72 312.21 106.97 318.51 106.97C322.056 106.97 326.21 107.53 330.97 108.65V144H321.59L321.8 138.26H321.52C320.306 140.453 318.813 142.133 317.04 143.3C315.313 144.467 313.353 145.05 311.16 145.05ZM313.26 136.44C314.706 136.44 316.13 135.67 317.53 134.13C318.93 132.59 320.236 130.537 321.45 127.97V116.21C319.956 115.79 318.463 115.58 316.97 115.58C314.17 115.58 312.046 116.537 310.6 118.45C309.2 120.363 308.5 123.187 308.5 126.92C308.5 129.86 308.92 132.193 309.76 133.92C310.6 135.6 311.766 136.44 313.26 136.44ZM340.588 107.95H350.458V113.83H351.018C352.371 111.45 353.701 109.7 355.008 108.58C356.361 107.46 358.041 106.9 360.048 106.9C360.888 106.9 361.588 106.993 362.148 107.18L361.098 117.82C359.885 117.493 358.905 117.33 358.158 117.33C357.085 117.33 356.128 117.54 355.288 117.96C354.495 118.38 353.771 118.94 353.118 119.64C352.511 120.34 351.625 121.413 350.458 122.86V144H340.588V107.95ZM384.117 145.05C378.283 145.05 373.687 143.37 370.327 140.01C367.013 136.65 365.357 131.983 365.357 126.01C365.357 122.137 366.08 118.777 367.527 115.93C368.973 113.037 371.003 110.82 373.617 109.28C376.277 107.74 379.38 106.97 382.927 106.97C388.153 106.97 392.167 108.65 394.967 112.01C397.767 115.37 399.167 120.223 399.167 126.57C399.167 127.643 399.143 128.437 399.097 128.95H375.297C375.763 131.423 376.837 133.313 378.517 134.62C380.197 135.88 382.46 136.51 385.307 136.51C387.033 136.51 388.83 136.3 390.697 135.88C392.563 135.413 394.197 134.807 395.597 134.06L397.207 141.97C395.34 142.95 393.263 143.697 390.977 144.21C388.737 144.77 386.45 145.05 384.117 145.05ZM389.717 121.53C389.577 119.523 388.877 117.937 387.617 116.77C386.357 115.557 384.677 114.95 382.577 114.95C380.57 114.95 378.913 115.533 377.607 116.7C376.347 117.867 375.553 119.477 375.227 121.53H389.717ZM404.673 135.53H411.043V116.42H404.673V107.95H411.043V103.54C411.043 100.04 412.163 97.24 414.403 95.14C416.643 92.9933 419.63 91.92 423.363 91.92C425.976 91.92 428.87 92.5733 432.043 93.88L428.613 101.65C427.026 100.857 425.603 100.46 424.343 100.46C423.27 100.46 422.43 100.763 421.823 101.37C421.216 101.977 420.913 102.863 420.913 104.03V107.95H429.313V116.42H420.913V135.53H429.313V144H404.673V135.53ZM446.375 145.05C442.641 145.05 439.678 143.463 437.485 140.29C435.291 137.117 434.195 132.8 434.195 127.34C434.195 120.713 435.875 115.673 439.235 112.22C442.595 108.72 447.425 106.97 453.725 106.97C457.271 106.97 461.425 107.53 466.185 108.65V144H456.805L457.015 138.26H456.735C455.521 140.453 454.028 142.133 452.255 143.3C450.528 144.467 448.568 145.05 446.375 145.05ZM448.475 136.44C449.921 136.44 451.345 135.67 452.745 134.13C454.145 132.59 455.451 130.537 456.665 127.97V116.21C455.171 115.79 453.678 115.58 452.185 115.58C449.385 115.58 447.261 116.537 445.815 118.45C444.415 120.363 443.715 123.187 443.715 126.92C443.715 129.86 444.135 132.193 444.975 133.92C445.815 135.6 446.981 136.44 448.475 136.44ZM487.579 144.91C484.873 144.91 482.283 144.607 479.809 144C477.383 143.393 475.283 142.577 473.509 141.55L474.349 132.17C476.449 133.477 478.643 134.503 480.929 135.25C483.263 135.95 485.409 136.3 487.369 136.3C489.609 136.3 491.429 135.833 492.829 134.9C494.229 133.967 494.929 132.73 494.929 131.19C494.929 129.93 494.463 128.973 493.529 128.32C492.596 127.62 491.126 126.873 489.119 126.08L487.439 125.38C487.206 125.287 486.949 125.193 486.669 125.1C486.389 124.96 486.063 124.82 485.689 124.68C483.076 123.607 480.976 122.603 479.389 121.67C477.803 120.69 476.426 119.337 475.259 117.61C474.139 115.883 473.579 113.643 473.579 110.89C473.579 106.41 475.096 102.887 478.129 100.32C481.163 97.7533 485.386 96.47 490.799 96.47C494.906 96.47 499.106 97.31 503.399 98.99L501.859 108.23C500.133 107.25 498.266 106.48 496.259 105.92C494.299 105.36 492.433 105.08 490.659 105.08C488.466 105.08 486.763 105.523 485.549 106.41C484.336 107.25 483.729 108.393 483.729 109.84C483.729 111.1 484.149 112.08 484.989 112.78C485.829 113.48 487.183 114.227 489.049 115.02L491.919 116.14C494.626 117.167 496.866 118.17 498.639 119.15C500.413 120.13 501.929 121.553 503.189 123.42C504.449 125.24 505.079 127.62 505.079 130.56C505.079 135.087 503.539 138.61 500.459 141.13C497.379 143.65 493.086 144.91 487.579 144.91ZM516.865 159.68C514.718 159.68 512.478 159.167 510.145 158.14L511.615 150.02C513.388 150.907 514.882 151.35 516.095 151.35C517.542 151.35 518.615 150.883 519.315 149.95C520.062 149.017 520.855 147.383 521.695 145.05L507.625 108.09L517.845 107.25L526.455 133.08L534.435 107.95H544.165C541.178 117.003 538.028 125.917 534.715 134.69C531.448 143.463 528.905 149.483 527.085 152.75C525.778 155.083 524.308 156.81 522.675 157.93C521.088 159.097 519.152 159.68 516.865 159.68ZM549.695 107.95H559.355V114.18C560.848 111.707 562.575 109.887 564.535 108.72C566.495 107.553 568.781 106.97 571.395 106.97C575.268 106.97 578.301 108.137 580.495 110.47C582.688 112.757 583.785 115.953 583.785 120.06V144H573.915V121.6C573.915 119.733 573.448 118.287 572.515 117.26C571.581 116.187 570.321 115.65 568.735 115.65C566.868 115.65 565.095 116.35 563.415 117.75C561.735 119.15 560.451 120.923 559.565 123.07V144H549.695V107.95ZM609.698 145.05C603.724 145.05 599.081 143.463 595.768 140.29C592.501 137.117 590.868 132.637 590.868 126.85C590.868 122.93 591.638 119.477 593.178 116.49C594.718 113.457 596.888 111.123 599.688 109.49C602.488 107.81 605.731 106.97 609.418 106.97C611.144 106.97 612.941 107.18 614.808 107.6C616.721 107.973 618.191 108.417 619.218 108.93L617.328 117.26C616.254 116.747 615.064 116.35 613.758 116.07C612.498 115.743 611.308 115.58 610.188 115.58C607.294 115.58 604.961 116.56 603.188 118.52C601.461 120.48 600.598 123.07 600.598 126.29C600.598 129.557 601.484 132.077 603.258 133.85C605.078 135.623 607.644 136.51 610.958 136.51C613.151 136.51 615.508 136.09 618.028 135.25L619.498 143.23C616.464 144.443 613.198 145.05 609.698 145.05Z" fill="black"/>
<defs>
<filter id="filter0_d_2_7" x="0" y="0" width="242" height="242" filterUnits="userSpaceOnUse" color-interpolation-filters="sRGB">
<feFlood flood-opacity="0" result="BackgroundImageFix"/>
<feColorMatrix in="SourceAlpha" type="matrix" values="0 0 0 0 0 0 0 0 0 0 0 0 0 0 0 0 0 0 127 0" result="hardAlpha"/>
<feMorphology radius="2" operator="dilate" in="SourceAlpha" result="effect1_dropShadow_2_7"/>
<feOffset dy="4"/>
<feGaussianBlur stdDeviation="2"/>
<feComposite in2="hardAlpha" operator="out"/>
<feColorMatrix type="matrix" values="0 0 0 0 0 0 0 0 0 0 0 0 0 0 0 0 0 0 0.3 0"/>
<feBlend mode="normal" in2="BackgroundImageFix" result="effect1_dropShadow_2_7"/>
<feBlend mode="normal" in="SourceGraphic" in2="effect1_dropShadow_2_7" result="shape"/>
</filter>
</defs>
</svg>
