<svg width="615" height="172" viewBox="0 0 615 172" fill="none" xmlns="http://www.w3.org/2000/svg">
<g filter="url(#filter0_d_4_4)">
<rect x="6" y="2" width="160" height="160" rx="20" fill="#04BEEF"/>
<rect x="7.5" y="3.5" width="157" height="157" rx="18.5" stroke="white" stroke-width="3"/>
</g>
<path d="M66.5435 35.4249C65.5729 35.5536 64.6914 36.0576 64.0879 36.8286L51.3344 52.8538L42.9119 47.2388C42.4971 46.9602 42.0313 46.7663 41.5413 46.6681C41.0513 46.57 40.5468 46.5695 40.0566 46.6668C39.5665 46.7641 39.1004 46.9573 38.685 47.2351C38.2697 47.513 37.9133 47.8702 37.6363 48.2861C37.3594 48.7021 37.1673 49.1686 37.071 49.659C36.9748 50.1494 36.9764 50.6539 37.0756 51.1437C37.1748 51.6334 37.3698 52.0988 37.6493 52.513C37.9288 52.9273 38.2874 53.2822 38.7044 53.5576L49.9344 61.0442C50.7215 61.5683 51.6777 61.775 52.611 61.6229C53.5443 61.4709 54.3854 60.9712 54.9654 60.2244L69.9387 41.5078C70.4152 40.9265 70.7057 40.2153 70.7724 39.4666C70.839 38.7179 70.6788 37.9665 70.3125 37.3102C69.9461 36.6539 69.3907 36.1231 68.7185 35.7868C68.0463 35.4506 67.2884 35.3244 66.5435 35.4249ZM81.9848 46.6549V54.1415H134.391V46.6549H81.9848ZM66.5435 69.1148C65.5729 69.2436 64.6914 69.7475 64.0879 70.5186L51.3344 86.5437L42.9119 80.9287C42.074 80.3703 41.0486 80.1676 40.0612 80.3652C39.0738 80.5628 38.2054 81.1446 37.647 81.9825C37.0885 82.8204 36.8858 83.8458 37.0834 84.8332C37.281 85.8206 37.8628 86.689 38.7007 87.2475L49.9307 94.7341C50.7178 95.2582 51.674 95.4649 52.6073 95.3129C53.5406 95.1608 54.3817 94.6612 54.9617 93.9143L69.935 75.1977C70.4111 74.6167 70.7014 73.9058 70.7681 73.1576C70.8349 72.4094 70.6749 71.6584 70.3091 71.0023C69.9433 70.3461 69.3885 69.8153 68.717 69.4787C68.0454 69.142 67.2881 69.0153 66.5435 69.1148ZM81.9848 80.3448V87.8314H134.391V80.3448H81.9848ZM66.5435 102.805C65.5729 102.933 64.6914 103.437 64.0879 104.208L51.3344 120.234L42.9119 114.619C42.497 114.342 42.0318 114.15 41.5426 114.053C41.0535 113.957 40.5501 113.957 40.0612 114.055C39.0738 114.253 38.2054 114.835 37.647 115.672C37.0885 116.51 36.8858 117.536 37.0834 118.523C37.281 119.511 37.8628 120.379 38.7007 120.937L49.9307 128.424C50.7178 128.948 51.674 129.155 52.6073 129.003C53.5406 128.851 54.3817 128.351 54.9617 127.604L69.935 108.888C70.4111 108.307 70.7014 107.596 70.7681 106.848C70.8349 106.099 70.6749 105.348 70.3091 104.692C69.9433 104.036 69.3885 103.505 68.717 103.169C68.0454 102.832 67.2881 102.705 66.5435 102.805ZM81.9848 114.035V121.521H134.391V114.035H81.9848Z" fill="white"/>
<path d="M236.52 57.56V68.2H219.8V113H207.32V68.2H190.6V57.56H236.52ZM253.805 104.68C254.978 104.68 256.098 104.653 257.165 104.6C258.232 104.547 259.085 104.467 259.725 104.36V95.32C259.245 95.2133 258.525 95.1067 257.565 95C256.605 94.8933 255.725 94.84 254.925 94.84C253.805 94.84 252.738 94.92 251.725 95.08C250.765 95.1867 249.912 95.4267 249.165 95.8C248.418 96.1733 247.832 96.68 247.405 97.32C246.978 97.96 246.765 98.76 246.765 99.72C246.765 101.587 247.378 102.893 248.605 103.64C249.885 104.333 251.618 104.68 253.805 104.68ZM252.845 69.8C256.365 69.8 259.298 70.2 261.645 71C263.992 71.8 265.858 72.9467 267.245 74.44C268.685 75.9333 269.698 77.7467 270.285 79.88C270.872 82.0133 271.165 84.3867 271.165 87V111.8C269.458 112.173 267.085 112.6 264.045 113.08C261.005 113.613 257.325 113.88 253.005 113.88C250.285 113.88 247.805 113.64 245.565 113.16C243.378 112.68 241.485 111.907 239.885 110.84C238.285 109.72 237.058 108.28 236.205 106.52C235.352 104.76 234.925 102.6 234.925 100.04C234.925 97.5867 235.405 95.5067 236.365 93.8C237.378 92.0933 238.712 90.7333 240.365 89.72C242.018 88.7067 243.912 87.9867 246.045 87.56C248.178 87.08 250.392 86.84 252.685 86.84C254.232 86.84 255.592 86.92 256.765 87.08C257.992 87.1867 258.978 87.3467 259.725 87.56V86.44C259.725 84.4133 259.112 82.7867 257.885 81.56C256.658 80.3333 254.525 79.72 251.485 79.72C249.458 79.72 247.458 79.88 245.485 80.2C243.512 80.4667 241.805 80.8667 240.365 81.4L238.845 71.8C239.538 71.5867 240.392 71.3733 241.405 71.16C242.472 70.8933 243.618 70.68 244.845 70.52C246.072 70.3067 247.352 70.1467 248.685 70.04C250.072 69.88 251.458 69.8 252.845 69.8ZM307.304 81.48C306.237 81.2133 304.984 80.9467 303.544 80.68C302.104 80.36 300.557 80.2 298.904 80.2C298.157 80.2 297.25 80.28 296.184 80.44C295.17 80.5467 294.397 80.68 293.864 80.84V113H281.944V73.16C284.077 72.4133 286.584 71.72 289.464 71.08C292.397 70.3867 295.65 70.04 299.224 70.04C299.864 70.04 300.637 70.0933 301.544 70.2C302.45 70.2533 303.357 70.36 304.264 70.52C305.17 70.6267 306.077 70.7867 306.984 71C307.89 71.16 308.664 71.3733 309.304 71.64L307.304 81.48ZM312.913 92.28C312.913 88.5467 313.473 85.2933 314.592 82.52C315.766 79.6933 317.286 77.3467 319.153 75.48C321.019 73.6133 323.153 72.2 325.553 71.24C328.006 70.28 330.513 69.8 333.073 69.8C339.046 69.8 343.766 71.64 347.233 75.32C350.699 78.9467 352.433 84.3067 352.433 91.4C352.433 92.0933 352.406 92.8667 352.353 93.72C352.299 94.52 352.246 95.24 352.193 95.88H325.153C325.419 98.3333 326.566 100.28 328.593 101.72C330.619 103.16 333.339 103.88 336.753 103.88C338.939 103.88 341.073 103.693 343.153 103.32C345.286 102.893 347.019 102.387 348.353 101.8L349.953 111.48C349.313 111.8 348.459 112.12 347.393 112.44C346.326 112.76 345.126 113.027 343.793 113.24C342.513 113.507 341.126 113.72 339.633 113.88C338.139 114.04 336.646 114.12 335.153 114.12C331.366 114.12 328.059 113.56 325.233 112.44C322.459 111.32 320.139 109.8 318.273 107.88C316.459 105.907 315.099 103.587 314.193 100.92C313.339 98.2533 312.913 95.3733 312.913 92.28ZM340.913 87.72C340.859 86.7067 340.673 85.72 340.353 84.76C340.086 83.8 339.633 82.9467 338.993 82.2C338.406 81.4533 337.633 80.84 336.673 80.36C335.766 79.88 334.619 79.64 333.233 79.64C331.899 79.64 330.753 79.88 329.793 80.36C328.833 80.7867 328.033 81.3733 327.393 82.12C326.753 82.8667 326.246 83.7467 325.873 84.76C325.553 85.72 325.313 86.7067 325.153 87.72H340.913ZM379.871 50.92C382.111 50.92 384.165 51.16 386.031 51.64C387.898 52.0667 389.338 52.4933 390.351 52.92L388.031 62.44C386.965 61.96 385.791 61.6133 384.511 61.4C383.285 61.1333 382.138 61 381.071 61C379.631 61 378.405 61.2133 377.391 61.64C376.431 62.0133 375.658 62.5467 375.071 63.24C374.538 63.9333 374.138 64.76 373.871 65.72C373.658 66.68 373.551 67.72 373.551 68.84V70.92H388.271V80.84H373.551V113H361.631V68.68C361.631 63.24 363.151 58.92 366.191 55.72C369.285 52.52 373.845 50.92 379.871 50.92ZM410.836 104.68C412.01 104.68 413.13 104.653 414.196 104.6C415.263 104.547 416.116 104.467 416.756 104.36V95.32C416.276 95.2133 415.556 95.1067 414.596 95C413.636 94.8933 412.756 94.84 411.956 94.84C410.836 94.84 409.77 94.92 408.756 95.08C407.796 95.1867 406.943 95.4267 406.196 95.8C405.45 96.1733 404.863 96.68 404.436 97.32C404.01 97.96 403.796 98.76 403.796 99.72C403.796 101.587 404.41 102.893 405.636 103.64C406.916 104.333 408.65 104.68 410.836 104.68ZM409.876 69.8C413.396 69.8 416.33 70.2 418.676 71C421.023 71.8 422.89 72.9467 424.276 74.44C425.716 75.9333 426.73 77.7467 427.316 79.88C427.903 82.0133 428.196 84.3867 428.196 87V111.8C426.49 112.173 424.116 112.6 421.076 113.08C418.036 113.613 414.356 113.88 410.036 113.88C407.316 113.88 404.836 113.64 402.596 113.16C400.41 112.68 398.516 111.907 396.916 110.84C395.316 109.72 394.09 108.28 393.236 106.52C392.383 104.76 391.956 102.6 391.956 100.04C391.956 97.5867 392.436 95.5067 393.396 93.8C394.41 92.0933 395.743 90.7333 397.396 89.72C399.05 88.7067 400.943 87.9867 403.076 87.56C405.21 87.08 407.423 86.84 409.716 86.84C411.263 86.84 412.623 86.92 413.796 87.08C415.023 87.1867 416.01 87.3467 416.756 87.56V86.44C416.756 84.4133 416.143 82.7867 414.916 81.56C413.69 80.3333 411.556 79.72 408.516 79.72C406.49 79.72 404.49 79.88 402.516 80.2C400.543 80.4667 398.836 80.8667 397.396 81.4L395.876 71.8C396.57 71.5867 397.423 71.3733 398.436 71.16C399.503 70.8933 400.65 70.68 401.876 70.52C403.103 70.3067 404.383 70.1467 405.716 70.04C407.103 69.88 408.49 69.8 409.876 69.8ZM454.895 103.48C456.655 103.48 458.095 103.347 459.215 103.08C460.388 102.76 461.322 102.36 462.015 101.88C462.708 101.347 463.188 100.733 463.455 100.04C463.722 99.3467 463.855 98.5733 463.855 97.72C463.855 95.9067 463.002 94.4133 461.295 93.24C459.588 92.0133 456.655 90.7067 452.495 89.32C450.682 88.68 448.868 87.96 447.055 87.16C445.242 86.3067 443.615 85.2667 442.175 84.04C440.735 82.76 439.562 81.24 438.655 79.48C437.748 77.6667 437.295 75.48 437.295 72.92C437.295 70.36 437.775 68.0667 438.735 66.04C439.695 63.96 441.055 62.2 442.815 60.76C444.575 59.32 446.708 58.2267 449.215 57.48C451.722 56.68 454.548 56.28 457.695 56.28C461.428 56.28 464.655 56.68 467.375 57.48C470.095 58.28 472.335 59.16 474.095 60.12L470.495 69.96C468.948 69.16 467.215 68.4667 465.295 67.88C463.428 67.24 461.162 66.92 458.495 66.92C455.508 66.92 453.348 67.3467 452.015 68.2C450.735 69 450.095 70.2533 450.095 71.96C450.095 72.9733 450.335 73.8267 450.815 74.52C451.295 75.2133 451.962 75.8533 452.815 76.44C453.722 76.9733 454.735 77.48 455.855 77.96C457.028 78.3867 458.308 78.84 459.695 79.32C462.575 80.3867 465.082 81.4533 467.215 82.52C469.348 83.5333 471.108 84.7333 472.495 86.12C473.935 87.5067 475.002 89.1333 475.695 91C476.388 92.8667 476.735 95.1333 476.735 97.8C476.735 102.973 474.922 107 471.295 109.88C467.668 112.707 462.202 114.12 454.895 114.12C452.442 114.12 450.228 113.96 448.255 113.64C446.282 113.373 444.522 113.027 442.975 112.6C441.482 112.173 440.175 111.72 439.055 111.24C437.988 110.76 437.082 110.307 436.335 109.88L439.855 99.96C441.508 100.867 443.535 101.693 445.935 102.44C448.388 103.133 451.375 103.48 454.895 103.48ZM521.648 70.92C519.248 79.0267 516.741 86.6267 514.128 93.72C511.514 100.813 508.661 107.693 505.568 114.36C504.448 116.76 503.328 118.787 502.207 120.44C501.088 122.147 499.861 123.533 498.528 124.6C497.194 125.72 495.674 126.52 493.968 127C492.314 127.533 490.368 127.8 488.128 127.8C486.261 127.8 484.528 127.613 482.928 127.24C481.381 126.92 480.101 126.547 479.088 126.12L481.168 116.6C482.394 117.027 483.488 117.32 484.448 117.48C485.408 117.64 486.421 117.72 487.488 117.72C489.621 117.72 491.248 117.133 492.368 115.96C493.541 114.84 494.528 113.267 495.328 111.24C492.608 105.907 489.888 99.9333 487.168 93.32C484.448 86.6533 481.888 79.1867 479.488 70.92H492.128C492.661 73 493.274 75.2667 493.968 77.72C494.714 80.12 495.488 82.5733 496.288 85.08C497.088 87.5333 497.888 89.9333 498.688 92.28C499.541 94.6267 500.341 96.76 501.088 98.68C501.781 96.76 502.501 94.6267 503.248 92.28C503.994 89.9333 504.714 87.5333 505.408 85.08C506.154 82.5733 506.848 80.12 507.488 77.72C508.181 75.2667 508.794 73 509.328 70.92H521.648ZM528.038 72.36C530.064 71.7733 532.678 71.24 535.878 70.76C539.078 70.2267 542.438 69.96 545.957 69.96C549.531 69.96 552.491 70.44 554.838 71.4C557.238 72.3067 559.131 73.6133 560.518 75.32C561.904 77.0267 562.891 79.0533 563.478 81.4C564.064 83.7467 564.358 86.36 564.358 89.24V113H552.438V90.68C552.438 86.84 551.931 84.12 550.918 82.52C549.904 80.92 548.011 80.12 545.238 80.12C544.384 80.12 543.478 80.1733 542.518 80.28C541.558 80.3333 540.704 80.4133 539.958 80.52V113H528.038V72.36ZM573.147 91.96C573.147 88.92 573.627 86.0667 574.587 83.4C575.6 80.68 577.04 78.3333 578.907 76.36C580.774 74.3333 583.04 72.7333 585.707 71.56C588.374 70.3867 591.414 69.8 594.827 69.8C597.067 69.8 599.12 70.0133 600.987 70.44C602.854 70.8133 604.667 71.3733 606.427 72.12L603.947 81.64C602.827 81.2133 601.6 80.84 600.267 80.52C598.934 80.2 597.44 80.04 595.787 80.04C592.267 80.04 589.627 81.1333 587.867 83.32C586.16 85.5067 585.307 88.3867 585.307 91.96C585.307 95.7467 586.107 98.68 587.707 100.76C589.36 102.84 592.214 103.88 596.267 103.88C597.707 103.88 599.254 103.747 600.907 103.48C602.56 103.213 604.08 102.787 605.467 102.2L607.147 111.96C605.76 112.547 604.027 113.053 601.947 113.48C599.867 113.907 597.574 114.12 595.067 114.12C591.227 114.12 587.92 113.56 585.147 112.44C582.374 111.267 580.08 109.693 578.267 107.72C576.507 105.747 575.2 103.427 574.347 100.76C573.547 98.04 573.147 95.1067 573.147 91.96Z" fill="white"/>
<defs>
<filter id="filter0_d_4_4" x="0" y="0" width="172" height="172" filterUnits="userSpaceOnUse" color-interpolation-filters="sRGB">
<feFlood flood-opacity="0" result="BackgroundImageFix"/>
<feColorMatrix in="SourceAlpha" type="matrix" values="0 0 0 0 0 0 0 0 0 0 0 0 0 0 0 0 0 0 127 0" result="hardAlpha"/>
<feMorphology radius="2" operator="dilate" in="SourceAlpha" result="effect1_dropShadow_4_4"/>
<feOffset dy="4"/>
<feGaussianBlur stdDeviation="2"/>
<feComposite in2="hardAlpha" operator="out"/>
<feColorMatrix type="matrix" values="0 0 0 0 0 0 0 0 0 0 0 0 0 0 0 0 0 0 0.3 0"/>
<feBlend mode="normal" in2="BackgroundImageFix" result="effect1_dropShadow_4_4"/>
<feBlend mode="normal" in="SourceGraphic" in2="effect1_dropShadow_4_4" result="shape"/>
</filter>
</defs>
</svg>
