<svg width="242" height="242" viewBox="0 0 242 242" fill="none" xmlns="http://www.w3.org/2000/svg">
<g filter="url(#filter0_d_2_9)">
<rect x="6" y="2" width="230" height="230" rx="20" fill="#04BEEF"/>
<rect x="7.5" y="3.5" width="227" height="227" rx="18.5" stroke="white" stroke-width="3"/>
</g>
<path d="M93.4688 50.0483C92.0736 50.2334 90.8064 50.9578 89.9389 52.0662L71.6057 75.1023L59.4984 67.0308C58.9021 66.6303 58.2325 66.3515 57.5282 66.2104C56.8238 66.0693 56.0985 66.0687 55.3939 66.2085C54.6893 66.3484 54.0193 66.626 53.4222 67.0255C52.8252 67.425 52.3129 67.9384 51.9147 68.5363C51.5166 69.1342 51.2404 69.8049 51.1021 70.5098C50.9638 71.2147 50.966 71.94 51.1087 72.644C51.2513 73.3481 51.5316 74.017 51.9334 74.6125C52.3352 75.2079 52.8507 75.7182 53.4501 76.114L69.5932 86.876C70.7247 87.6294 72.0993 87.9266 73.4409 87.708C74.7824 87.4894 75.9916 86.7711 76.8253 85.6976L98.3494 58.7924C99.0344 57.9569 99.452 56.9344 99.5478 55.8582C99.6436 54.782 99.4132 53.7019 98.8867 52.7585C98.3601 51.815 97.5617 51.0519 96.5954 50.5685C95.6291 50.0852 94.5396 49.9039 93.4688 50.0483ZM115.666 66.1914V76.9534H191V66.1914H115.666ZM93.4688 98.4775C92.0736 98.6626 90.8064 99.387 89.9389 100.495L71.6057 123.532L59.4984 115.46C58.2939 114.657 56.8198 114.366 55.4005 114.65C53.9811 114.934 52.7328 115.77 51.93 116.975C51.1272 118.179 50.8358 119.653 51.1199 121.073C51.404 122.492 52.2403 123.74 53.4448 124.543L69.5878 135.305C70.7193 136.059 72.0939 136.356 73.4355 136.137C74.7771 135.919 75.9862 135.2 76.8199 134.127L98.3441 107.222C99.0285 106.386 99.4458 105.365 99.5417 104.289C99.6376 103.213 99.4077 102.134 98.8818 101.191C98.356 100.248 97.5585 99.4844 96.5932 99.0005C95.6278 98.5167 94.5392 98.3344 93.4688 98.4775ZM115.666 114.621V125.383H191V114.621H115.666ZM93.4688 146.907C92.0736 147.092 90.8064 147.816 89.9389 148.925L71.6057 171.961L59.4984 163.889C58.902 163.492 58.2331 163.216 57.53 163.077C56.8269 162.938 56.1033 162.939 55.4005 163.079C53.9811 163.363 52.7328 164.2 51.93 165.404C51.1272 166.609 50.8358 168.083 51.1199 169.502C51.404 170.921 52.2403 172.17 53.4448 172.972L69.5878 183.735C70.7193 184.488 72.0939 184.785 73.4355 184.566C74.7771 184.348 75.9862 183.63 76.8199 182.556L98.3441 155.651C99.0285 154.816 99.4458 153.794 99.5417 152.718C99.6376 151.643 99.4077 150.563 98.8818 149.62C98.356 148.677 97.5585 147.914 96.5932 147.43C95.6278 146.946 94.5392 146.764 93.4688 146.907ZM115.666 163.05V173.812H191V163.05H115.666Z" fill="white"/>
<defs>
<filter id="filter0_d_2_9" x="0" y="0" width="242" height="242" filterUnits="userSpaceOnUse" color-interpolation-filters="sRGB">
<feFlood flood-opacity="0" result="BackgroundImageFix"/>
<feColorMatrix in="SourceAlpha" type="matrix" values="0 0 0 0 0 0 0 0 0 0 0 0 0 0 0 0 0 0 127 0" result="hardAlpha"/>
<feMorphology radius="2" operator="dilate" in="SourceAlpha" result="effect1_dropShadow_2_9"/>
<feOffset dy="4"/>
<feGaussianBlur stdDeviation="2"/>
<feComposite in2="hardAlpha" operator="out"/>
<feColorMatrix type="matrix" values="0 0 0 0 0 0 0 0 0 0 0 0 0 0 0 0 0 0 0.3 0"/>
<feBlend mode="normal" in2="BackgroundImageFix" result="effect1_dropShadow_2_9"/>
<feBlend mode="normal" in="SourceGraphic" in2="effect1_dropShadow_2_9" result="shape"/>
</filter>
</defs>
</svg>
