<svg width="365" height="327" viewBox="0 0 365 327" fill="none" xmlns="http://www.w3.org/2000/svg">
<g filter="url(#filter0_d_2_13)">
<rect x="68" y="2" width="230" height="230" rx="20" fill="#04BEEF"/>
<rect x="69.5" y="3.5" width="227" height="227" rx="18.5" stroke="black" stroke-width="3"/>
</g>
<path d="M155.469 50.0483C154.074 50.2334 152.806 50.9578 151.939 52.0662L133.606 75.1023L121.498 67.0308C120.902 66.6303 120.233 66.3515 119.528 66.2104C118.824 66.0693 118.099 66.0687 117.394 66.2085C116.689 66.3484 116.019 66.626 115.422 67.0255C114.825 67.425 114.313 67.9384 113.915 68.5363C113.517 69.1342 113.24 69.8049 113.102 70.5098C112.964 71.2147 112.966 71.94 113.109 72.644C113.251 73.3481 113.532 74.017 113.933 74.6125C114.335 75.2079 114.851 75.7182 115.45 76.114L131.593 86.876C132.725 87.6294 134.099 87.9266 135.441 87.708C136.782 87.4894 137.992 86.7711 138.825 85.6976L160.349 58.7924C161.034 57.9569 161.452 56.9344 161.548 55.8582C161.644 54.782 161.413 53.7019 160.887 52.7585C160.36 51.815 159.562 51.0519 158.595 50.5685C157.629 50.0852 156.54 49.9039 155.469 50.0483ZM177.666 66.1914V76.9534H253V66.1914H177.666ZM155.469 98.4775C154.074 98.6626 152.806 99.387 151.939 100.495L133.606 123.532L121.498 115.46C120.294 114.657 118.82 114.366 117.4 114.65C115.981 114.934 114.733 115.77 113.93 116.975C113.127 118.179 112.836 119.653 113.12 121.073C113.404 122.492 114.24 123.74 115.445 124.543L131.588 135.305C132.719 136.059 134.094 136.356 135.435 136.137C136.777 135.919 137.986 135.2 138.82 134.127L160.344 107.222C161.028 106.386 161.446 105.365 161.542 104.289C161.638 103.213 161.408 102.134 160.882 101.191C160.356 100.248 159.559 99.4844 158.593 99.0005C157.628 98.5167 156.539 98.3344 155.469 98.4775ZM177.666 114.621V125.383H253V114.621H177.666ZM155.469 146.907C154.074 147.092 152.806 147.816 151.939 148.925L133.606 171.961L121.498 163.889C120.902 163.492 120.233 163.216 119.53 163.077C118.827 162.938 118.103 162.939 117.4 163.079C115.981 163.363 114.733 164.2 113.93 165.404C113.127 166.609 112.836 168.083 113.12 169.502C113.404 170.921 114.24 172.17 115.445 172.972L131.588 183.735C132.719 184.488 134.094 184.785 135.435 184.566C136.777 184.348 137.986 183.63 138.82 182.556L160.344 155.651C161.028 154.816 161.446 153.794 161.542 152.718C161.638 151.643 161.408 150.563 160.882 149.62C160.356 148.677 159.559 147.914 158.593 147.43C157.628 146.946 156.539 146.764 155.469 146.907ZM177.666 163.05V173.812H253V163.05H177.666Z" fill="white"/>
<path d="M14.84 271.2H2.1V262.38H37.66V271.2H25.06V309H14.84V271.2ZM49.1597 310.05C45.4264 310.05 42.463 308.463 40.2697 305.29C38.0764 302.117 36.9797 297.8 36.9797 292.34C36.9797 285.713 38.6597 280.673 42.0197 277.22C45.3797 273.72 50.2097 271.97 56.5097 271.97C60.0564 271.97 64.2097 272.53 68.9697 273.65V309H59.5897L59.7997 303.26H59.5197C58.3064 305.453 56.813 307.133 55.0397 308.3C53.313 309.467 51.353 310.05 49.1597 310.05ZM51.2597 301.44C52.7064 301.44 54.1297 300.67 55.5297 299.13C56.9297 297.59 58.2364 295.537 59.4497 292.97V281.21C57.9564 280.79 56.463 280.58 54.9697 280.58C52.1697 280.58 50.0464 281.537 48.5997 283.45C47.1997 285.363 46.4997 288.187 46.4997 291.92C46.4997 294.86 46.9197 297.193 47.7597 298.92C48.5997 300.6 49.7664 301.44 51.2597 301.44ZM78.5881 272.95H88.4581V278.83H89.0181C90.3715 276.45 91.7015 274.7 93.0081 273.58C94.3615 272.46 96.0415 271.9 98.0481 271.9C98.8881 271.9 99.5881 271.993 100.148 272.18L99.0981 282.82C97.8848 282.493 96.9048 282.33 96.1581 282.33C95.0848 282.33 94.1281 282.54 93.2881 282.96C92.4948 283.38 91.7715 283.94 91.1181 284.64C90.5115 285.34 89.6248 286.413 88.4581 287.86V309H78.5881V272.95ZM122.117 310.05C116.283 310.05 111.687 308.37 108.327 305.01C105.013 301.65 103.357 296.983 103.357 291.01C103.357 287.137 104.08 283.777 105.527 280.93C106.973 278.037 109.003 275.82 111.617 274.28C114.277 272.74 117.38 271.97 120.927 271.97C126.153 271.97 130.167 273.65 132.967 277.01C135.767 280.37 137.167 285.223 137.167 291.57C137.167 292.643 137.143 293.437 137.097 293.95H113.297C113.763 296.423 114.837 298.313 116.517 299.62C118.197 300.88 120.46 301.51 123.307 301.51C125.033 301.51 126.83 301.3 128.697 300.88C130.563 300.413 132.197 299.807 133.597 299.06L135.207 306.97C133.34 307.95 131.263 308.697 128.977 309.21C126.737 309.77 124.45 310.05 122.117 310.05ZM127.717 286.53C127.577 284.523 126.877 282.937 125.617 281.77C124.357 280.557 122.677 279.95 120.577 279.95C118.57 279.95 116.913 280.533 115.607 281.7C114.347 282.867 113.553 284.477 113.227 286.53H127.717ZM142.673 300.53H149.043V281.42H142.673V272.95H149.043V268.54C149.043 265.04 150.163 262.24 152.403 260.14C154.643 257.993 157.63 256.92 161.363 256.92C163.976 256.92 166.87 257.573 170.043 258.88L166.613 266.65C165.026 265.857 163.603 265.46 162.343 265.46C161.27 265.46 160.43 265.763 159.823 266.37C159.216 266.977 158.913 267.863 158.913 269.03V272.95H167.313V281.42H158.913V300.53H167.313V309H142.673V300.53ZM184.375 310.05C180.641 310.05 177.678 308.463 175.485 305.29C173.291 302.117 172.195 297.8 172.195 292.34C172.195 285.713 173.875 280.673 177.235 277.22C180.595 273.72 185.425 271.97 191.725 271.97C195.271 271.97 199.425 272.53 204.185 273.65V309H194.805L195.015 303.26H194.735C193.521 305.453 192.028 307.133 190.255 308.3C188.528 309.467 186.568 310.05 184.375 310.05ZM186.475 301.44C187.921 301.44 189.345 300.67 190.745 299.13C192.145 297.59 193.451 295.537 194.665 292.97V281.21C193.171 280.79 191.678 280.58 190.185 280.58C187.385 280.58 185.261 281.537 183.815 283.45C182.415 285.363 181.715 288.187 181.715 291.92C181.715 294.86 182.135 297.193 182.975 298.92C183.815 300.6 184.981 301.44 186.475 301.44ZM225.579 309.91C222.873 309.91 220.283 309.607 217.809 309C215.383 308.393 213.283 307.577 211.509 306.55L212.349 297.17C214.449 298.477 216.643 299.503 218.929 300.25C221.263 300.95 223.409 301.3 225.369 301.3C227.609 301.3 229.429 300.833 230.829 299.9C232.229 298.967 232.929 297.73 232.929 296.19C232.929 294.93 232.463 293.973 231.529 293.32C230.596 292.62 229.126 291.873 227.119 291.08L225.439 290.38C225.206 290.287 224.949 290.193 224.669 290.1C224.389 289.96 224.063 289.82 223.689 289.68C221.076 288.607 218.976 287.603 217.389 286.67C215.803 285.69 214.426 284.337 213.259 282.61C212.139 280.883 211.579 278.643 211.579 275.89C211.579 271.41 213.096 267.887 216.129 265.32C219.163 262.753 223.386 261.47 228.799 261.47C232.906 261.47 237.106 262.31 241.399 263.99L239.859 273.23C238.133 272.25 236.266 271.48 234.259 270.92C232.299 270.36 230.433 270.08 228.659 270.08C226.466 270.08 224.763 270.523 223.549 271.41C222.336 272.25 221.729 273.393 221.729 274.84C221.729 276.1 222.149 277.08 222.989 277.78C223.829 278.48 225.183 279.227 227.049 280.02L229.919 281.14C232.626 282.167 234.866 283.17 236.639 284.15C238.413 285.13 239.929 286.553 241.189 288.42C242.449 290.24 243.079 292.62 243.079 295.56C243.079 300.087 241.539 303.61 238.459 306.13C235.379 308.65 231.086 309.91 225.579 309.91ZM254.865 324.68C252.718 324.68 250.478 324.167 248.145 323.14L249.615 315.02C251.388 315.907 252.882 316.35 254.095 316.35C255.542 316.35 256.615 315.883 257.315 314.95C258.062 314.017 258.855 312.383 259.695 310.05L245.625 273.09L255.845 272.25L264.455 298.08L272.435 272.95H282.165C279.178 282.003 276.028 290.917 272.715 299.69C269.448 308.463 266.905 314.483 265.085 317.75C263.778 320.083 262.308 321.81 260.675 322.93C259.088 324.097 257.152 324.68 254.865 324.68ZM287.695 272.95H297.355V279.18C298.848 276.707 300.575 274.887 302.535 273.72C304.495 272.553 306.781 271.97 309.395 271.97C313.268 271.97 316.301 273.137 318.495 275.47C320.688 277.757 321.785 280.953 321.785 285.06V309H311.915V286.6C311.915 284.733 311.448 283.287 310.515 282.26C309.581 281.187 308.321 280.65 306.735 280.65C304.868 280.65 303.095 281.35 301.415 282.75C299.735 284.15 298.451 285.923 297.565 288.07V309H287.695V272.95ZM347.698 310.05C341.724 310.05 337.081 308.463 333.768 305.29C330.501 302.117 328.868 297.637 328.868 291.85C328.868 287.93 329.638 284.477 331.178 281.49C332.718 278.457 334.888 276.123 337.688 274.49C340.488 272.81 343.731 271.97 347.418 271.97C349.144 271.97 350.941 272.18 352.808 272.6C354.721 272.973 356.191 273.417 357.218 273.93L355.328 282.26C354.254 281.747 353.064 281.35 351.758 281.07C350.498 280.743 349.308 280.58 348.188 280.58C345.294 280.58 342.961 281.56 341.188 283.52C339.461 285.48 338.598 288.07 338.598 291.29C338.598 294.557 339.484 297.077 341.258 298.85C343.078 300.623 345.644 301.51 348.958 301.51C351.151 301.51 353.508 301.09 356.028 300.25L357.498 308.23C354.464 309.443 351.198 310.05 347.698 310.05Z" fill="black"/>
<defs>
<filter id="filter0_d_2_13" x="62" y="0" width="242" height="242" filterUnits="userSpaceOnUse" color-interpolation-filters="sRGB">
<feFlood flood-opacity="0" result="BackgroundImageFix"/>
<feColorMatrix in="SourceAlpha" type="matrix" values="0 0 0 0 0 0 0 0 0 0 0 0 0 0 0 0 0 0 127 0" result="hardAlpha"/>
<feMorphology radius="2" operator="dilate" in="SourceAlpha" result="effect1_dropShadow_2_13"/>
<feOffset dy="4"/>
<feGaussianBlur stdDeviation="2"/>
<feComposite in2="hardAlpha" operator="out"/>
<feColorMatrix type="matrix" values="0 0 0 0 0 0 0 0 0 0 0 0 0 0 0 0 0 0 0.3 0"/>
<feBlend mode="normal" in2="BackgroundImageFix" result="effect1_dropShadow_2_13"/>
<feBlend mode="normal" in="SourceGraphic" in2="effect1_dropShadow_2_13" result="shape"/>
</filter>
</defs>
</svg>
