<svg width="426" height="260" viewBox="0 0 426 260" fill="none" xmlns="http://www.w3.org/2000/svg">
<g filter="url(#filter0_d_5_4)">
<rect x="127" y="2" width="160" height="160" rx="20" fill="#04BEEF"/>
<rect x="128.5" y="3.5" width="157" height="157" rx="18.5" stroke="white" stroke-width="3"/>
</g>
<path d="M187.544 35.0336C186.573 35.1623 185.691 35.6663 185.088 36.4373L172.334 52.4625L163.912 46.8475C163.497 46.5689 163.031 46.3749 162.541 46.2768C162.051 46.1786 161.547 46.1782 161.057 46.2755C160.566 46.3728 160.1 46.5659 159.685 46.8438C159.27 47.1217 158.913 47.4789 158.636 47.8948C158.359 48.3108 158.167 48.7773 158.071 49.2677C157.975 49.758 157.976 50.2626 158.076 50.7523C158.175 51.2421 158.37 51.7075 158.649 52.1217C158.929 52.5359 159.287 52.8909 159.704 53.1662L170.934 60.6529C171.722 61.1769 172.678 61.3837 173.611 61.2316C174.544 61.0795 175.385 60.5799 175.965 59.8331L190.939 41.1165C191.415 40.5352 191.706 39.8239 191.772 39.0753C191.839 38.3266 191.679 37.5752 191.312 36.9189C190.946 36.2626 190.391 35.7318 189.719 35.3955C189.046 35.0592 188.288 34.9331 187.544 35.0336ZM202.985 46.2635V53.7502H255.391V46.2635H202.985ZM187.544 68.7235C186.573 68.8522 185.691 69.3562 185.088 70.1272L172.334 86.1524L163.912 80.5374C163.074 79.979 162.049 79.7763 161.061 79.9739C160.074 80.1715 159.205 80.7533 158.647 81.5912C158.089 82.4291 157.886 83.4545 158.083 84.4419C158.281 85.4293 158.863 86.2977 159.701 86.8562L170.931 94.3428C171.718 94.8669 172.674 95.0736 173.607 94.9215C174.541 94.7695 175.382 94.2698 175.962 93.523L190.935 74.8064C191.411 74.2254 191.701 73.5145 191.768 72.7663C191.835 72.018 191.675 71.267 191.309 70.6109C190.943 69.9548 190.389 69.4239 189.717 69.0873C189.045 68.7507 188.288 68.6239 187.544 68.7235ZM202.985 79.9535V87.4401H255.391V79.9535H202.985ZM187.544 102.413C186.573 102.542 185.691 103.046 185.088 103.817L172.334 119.842L163.912 114.227C163.497 113.951 163.032 113.759 162.543 113.662C162.053 113.565 161.55 113.566 161.061 113.664C160.074 113.861 159.205 114.443 158.647 115.281C158.089 116.119 157.886 117.144 158.083 118.132C158.281 119.119 158.863 119.988 159.701 120.546L170.931 128.033C171.718 128.557 172.674 128.764 173.607 128.611C174.541 128.459 175.382 127.96 175.962 127.213L190.935 108.496C191.411 107.915 191.701 107.204 191.768 106.456C191.835 105.708 191.675 104.957 191.309 104.301C190.943 103.645 190.389 103.114 189.717 102.777C189.045 102.441 188.288 102.314 187.544 102.413ZM202.985 113.643V121.13H255.391V113.643H202.985Z" fill="white"/>
<path d="M47.52 189.56V200.2H30.8V245H18.32V200.2H1.6V189.56H47.52ZM64.805 236.68C65.9783 236.68 67.0983 236.653 68.165 236.6C69.2317 236.547 70.085 236.467 70.725 236.36V227.32C70.245 227.213 69.525 227.107 68.565 227C67.605 226.893 66.725 226.84 65.925 226.84C64.805 226.84 63.7383 226.92 62.725 227.08C61.765 227.187 60.9117 227.427 60.165 227.8C59.4183 228.173 58.8317 228.68 58.405 229.32C57.9783 229.96 57.765 230.76 57.765 231.72C57.765 233.587 58.3783 234.893 59.605 235.64C60.885 236.333 62.6183 236.68 64.805 236.68ZM63.845 201.8C67.365 201.8 70.2983 202.2 72.645 203C74.9917 203.8 76.8583 204.947 78.245 206.44C79.685 207.933 80.6983 209.747 81.285 211.88C81.8717 214.013 82.165 216.387 82.165 219V243.8C80.4583 244.173 78.085 244.6 75.045 245.08C72.005 245.613 68.325 245.88 64.005 245.88C61.285 245.88 58.805 245.64 56.565 245.16C54.3783 244.68 52.485 243.907 50.885 242.84C49.285 241.72 48.0583 240.28 47.205 238.52C46.3517 236.76 45.925 234.6 45.925 232.04C45.925 229.587 46.405 227.507 47.365 225.8C48.3783 224.093 49.7117 222.733 51.365 221.72C53.0183 220.707 54.9117 219.987 57.045 219.56C59.1783 219.08 61.3917 218.84 63.685 218.84C65.2317 218.84 66.5917 218.92 67.765 219.08C68.9917 219.187 69.9783 219.347 70.725 219.56V218.44C70.725 216.413 70.1117 214.787 68.885 213.56C67.6583 212.333 65.525 211.72 62.485 211.72C60.4583 211.72 58.4583 211.88 56.485 212.2C54.5117 212.467 52.805 212.867 51.365 213.4L49.845 203.8C50.5383 203.587 51.3917 203.373 52.405 203.16C53.4717 202.893 54.6183 202.68 55.845 202.52C57.0717 202.307 58.3517 202.147 59.685 202.04C61.0717 201.88 62.4583 201.8 63.845 201.8ZM118.304 213.48C117.237 213.213 115.984 212.947 114.544 212.68C113.104 212.36 111.557 212.2 109.904 212.2C109.157 212.2 108.25 212.28 107.184 212.44C106.17 212.547 105.397 212.68 104.864 212.84V245H92.9438V205.16C95.0771 204.413 97.5838 203.72 100.464 203.08C103.397 202.387 106.65 202.04 110.224 202.04C110.864 202.04 111.637 202.093 112.544 202.2C113.45 202.253 114.357 202.36 115.264 202.52C116.17 202.627 117.077 202.787 117.984 203C118.89 203.16 119.664 203.373 120.304 203.64L118.304 213.48ZM123.913 224.28C123.913 220.547 124.473 217.293 125.592 214.52C126.766 211.693 128.286 209.347 130.153 207.48C132.019 205.613 134.153 204.2 136.553 203.24C139.006 202.28 141.513 201.8 144.073 201.8C150.046 201.8 154.766 203.64 158.233 207.32C161.699 210.947 163.433 216.307 163.433 223.4C163.433 224.093 163.406 224.867 163.353 225.72C163.299 226.52 163.246 227.24 163.193 227.88H136.153C136.419 230.333 137.566 232.28 139.593 233.72C141.619 235.16 144.339 235.88 147.753 235.88C149.939 235.88 152.073 235.693 154.153 235.32C156.286 234.893 158.019 234.387 159.353 233.8L160.953 243.48C160.313 243.8 159.459 244.12 158.393 244.44C157.326 244.76 156.126 245.027 154.793 245.24C153.513 245.507 152.126 245.72 150.633 245.88C149.139 246.04 147.646 246.12 146.153 246.12C142.366 246.12 139.059 245.56 136.233 244.44C133.459 243.32 131.139 241.8 129.273 239.88C127.459 237.907 126.099 235.587 125.193 232.92C124.339 230.253 123.913 227.373 123.913 224.28ZM151.913 219.72C151.859 218.707 151.673 217.72 151.353 216.76C151.086 215.8 150.633 214.947 149.993 214.2C149.406 213.453 148.633 212.84 147.673 212.36C146.766 211.88 145.619 211.64 144.233 211.64C142.899 211.64 141.753 211.88 140.793 212.36C139.833 212.787 139.033 213.373 138.393 214.12C137.753 214.867 137.246 215.747 136.873 216.76C136.553 217.72 136.313 218.707 136.153 219.72H151.913ZM190.871 182.92C193.111 182.92 195.165 183.16 197.031 183.64C198.898 184.067 200.338 184.493 201.351 184.92L199.031 194.44C197.965 193.96 196.791 193.613 195.511 193.4C194.285 193.133 193.138 193 192.071 193C190.631 193 189.405 193.213 188.391 193.64C187.431 194.013 186.658 194.547 186.071 195.24C185.538 195.933 185.138 196.76 184.871 197.72C184.658 198.68 184.551 199.72 184.551 200.84V202.92H199.271V212.84H184.551V245H172.631V200.68C172.631 195.24 174.151 190.92 177.191 187.72C180.285 184.52 184.845 182.92 190.871 182.92ZM221.836 236.68C223.01 236.68 224.13 236.653 225.196 236.6C226.263 236.547 227.116 236.467 227.756 236.36V227.32C227.276 227.213 226.556 227.107 225.596 227C224.636 226.893 223.756 226.84 222.956 226.84C221.836 226.84 220.77 226.92 219.756 227.08C218.796 227.187 217.943 227.427 217.196 227.8C216.45 228.173 215.863 228.68 215.436 229.32C215.01 229.96 214.796 230.76 214.796 231.72C214.796 233.587 215.41 234.893 216.636 235.64C217.916 236.333 219.65 236.68 221.836 236.68ZM220.876 201.8C224.396 201.8 227.33 202.2 229.676 203C232.023 203.8 233.89 204.947 235.276 206.44C236.716 207.933 237.73 209.747 238.316 211.88C238.903 214.013 239.196 216.387 239.196 219V243.8C237.49 244.173 235.116 244.6 232.076 245.08C229.036 245.613 225.356 245.88 221.036 245.88C218.316 245.88 215.836 245.64 213.596 245.16C211.41 244.68 209.516 243.907 207.916 242.84C206.316 241.72 205.09 240.28 204.236 238.52C203.383 236.76 202.956 234.6 202.956 232.04C202.956 229.587 203.436 227.507 204.396 225.8C205.41 224.093 206.743 222.733 208.396 221.72C210.05 220.707 211.943 219.987 214.076 219.56C216.21 219.08 218.423 218.84 220.716 218.84C222.263 218.84 223.623 218.92 224.796 219.08C226.023 219.187 227.01 219.347 227.756 219.56V218.44C227.756 216.413 227.143 214.787 225.916 213.56C224.69 212.333 222.556 211.72 219.516 211.72C217.49 211.72 215.49 211.88 213.516 212.2C211.543 212.467 209.836 212.867 208.396 213.4L206.876 203.8C207.57 203.587 208.423 203.373 209.436 203.16C210.503 202.893 211.65 202.68 212.876 202.52C214.103 202.307 215.383 202.147 216.716 202.04C218.103 201.88 219.49 201.8 220.876 201.8ZM265.895 235.48C267.655 235.48 269.095 235.347 270.215 235.08C271.388 234.76 272.322 234.36 273.015 233.88C273.708 233.347 274.188 232.733 274.455 232.04C274.722 231.347 274.855 230.573 274.855 229.72C274.855 227.907 274.002 226.413 272.295 225.24C270.588 224.013 267.655 222.707 263.495 221.32C261.682 220.68 259.868 219.96 258.055 219.16C256.242 218.307 254.615 217.267 253.175 216.04C251.735 214.76 250.562 213.24 249.655 211.48C248.748 209.667 248.295 207.48 248.295 204.92C248.295 202.36 248.775 200.067 249.735 198.04C250.695 195.96 252.055 194.2 253.815 192.76C255.575 191.32 257.708 190.227 260.215 189.48C262.722 188.68 265.548 188.28 268.695 188.28C272.428 188.28 275.655 188.68 278.375 189.48C281.095 190.28 283.335 191.16 285.095 192.12L281.495 201.96C279.948 201.16 278.215 200.467 276.295 199.88C274.428 199.24 272.162 198.92 269.495 198.92C266.508 198.92 264.348 199.347 263.015 200.2C261.735 201 261.095 202.253 261.095 203.96C261.095 204.973 261.335 205.827 261.815 206.52C262.295 207.213 262.962 207.853 263.815 208.44C264.722 208.973 265.735 209.48 266.855 209.96C268.028 210.387 269.308 210.84 270.695 211.32C273.575 212.387 276.082 213.453 278.215 214.52C280.348 215.533 282.108 216.733 283.495 218.12C284.935 219.507 286.002 221.133 286.695 223C287.388 224.867 287.735 227.133 287.735 229.8C287.735 234.973 285.922 239 282.295 241.88C278.668 244.707 273.202 246.12 265.895 246.12C263.442 246.12 261.228 245.96 259.255 245.64C257.282 245.373 255.522 245.027 253.975 244.6C252.482 244.173 251.175 243.72 250.055 243.24C248.988 242.76 248.082 242.307 247.335 241.88L250.855 231.96C252.508 232.867 254.535 233.693 256.935 234.44C259.388 235.133 262.375 235.48 265.895 235.48ZM332.648 202.92C330.248 211.027 327.741 218.627 325.128 225.72C322.514 232.813 319.661 239.693 316.568 246.36C315.448 248.76 314.328 250.787 313.207 252.44C312.088 254.147 310.861 255.533 309.528 256.6C308.194 257.72 306.674 258.52 304.968 259C303.314 259.533 301.368 259.8 299.128 259.8C297.261 259.8 295.528 259.613 293.928 259.24C292.381 258.92 291.101 258.547 290.088 258.12L292.168 248.6C293.394 249.027 294.488 249.32 295.448 249.48C296.408 249.64 297.421 249.72 298.488 249.72C300.621 249.72 302.248 249.133 303.368 247.96C304.541 246.84 305.528 245.267 306.328 243.24C303.608 237.907 300.888 231.933 298.168 225.32C295.448 218.653 292.888 211.187 290.488 202.92H303.128C303.661 205 304.274 207.267 304.968 209.72C305.714 212.12 306.488 214.573 307.288 217.08C308.088 219.533 308.888 221.933 309.688 224.28C310.541 226.627 311.341 228.76 312.088 230.68C312.781 228.76 313.501 226.627 314.248 224.28C314.994 221.933 315.714 219.533 316.408 217.08C317.154 214.573 317.848 212.12 318.488 209.72C319.181 207.267 319.794 205 320.328 202.92H332.648ZM339.038 204.36C341.064 203.773 343.678 203.24 346.878 202.76C350.078 202.227 353.438 201.96 356.957 201.96C360.531 201.96 363.491 202.44 365.838 203.4C368.238 204.307 370.131 205.613 371.518 207.32C372.904 209.027 373.891 211.053 374.478 213.4C375.064 215.747 375.358 218.36 375.358 221.24V245H363.438V222.68C363.438 218.84 362.931 216.12 361.918 214.52C360.904 212.92 359.011 212.12 356.238 212.12C355.384 212.12 354.478 212.173 353.518 212.28C352.558 212.333 351.704 212.413 350.958 212.52V245H339.038V204.36ZM384.147 223.96C384.147 220.92 384.627 218.067 385.587 215.4C386.6 212.68 388.04 210.333 389.907 208.36C391.774 206.333 394.04 204.733 396.707 203.56C399.374 202.387 402.414 201.8 405.827 201.8C408.067 201.8 410.12 202.013 411.987 202.44C413.854 202.813 415.667 203.373 417.427 204.12L414.947 213.64C413.827 213.213 412.6 212.84 411.267 212.52C409.934 212.2 408.44 212.04 406.787 212.04C403.267 212.04 400.627 213.133 398.867 215.32C397.16 217.507 396.307 220.387 396.307 223.96C396.307 227.747 397.107 230.68 398.707 232.76C400.36 234.84 403.214 235.88 407.267 235.88C408.707 235.88 410.254 235.747 411.907 235.48C413.56 235.213 415.08 234.787 416.467 234.2L418.147 243.96C416.76 244.547 415.027 245.053 412.947 245.48C410.867 245.907 408.574 246.12 406.067 246.12C402.227 246.12 398.92 245.56 396.147 244.44C393.374 243.267 391.08 241.693 389.267 239.72C387.507 237.747 386.2 235.427 385.347 232.76C384.547 230.04 384.147 227.107 384.147 223.96Z" fill="white"/>
<defs>
<filter id="filter0_d_5_4" x="121" y="0" width="172" height="172" filterUnits="userSpaceOnUse" color-interpolation-filters="sRGB">
<feFlood flood-opacity="0" result="BackgroundImageFix"/>
<feColorMatrix in="SourceAlpha" type="matrix" values="0 0 0 0 0 0 0 0 0 0 0 0 0 0 0 0 0 0 127 0" result="hardAlpha"/>
<feMorphology radius="2" operator="dilate" in="SourceAlpha" result="effect1_dropShadow_5_4"/>
<feOffset dy="4"/>
<feGaussianBlur stdDeviation="2"/>
<feComposite in2="hardAlpha" operator="out"/>
<feColorMatrix type="matrix" values="0 0 0 0 0 0 0 0 0 0 0 0 0 0 0 0 0 0 0.3 0"/>
<feBlend mode="normal" in2="BackgroundImageFix" result="effect1_dropShadow_5_4"/>
<feBlend mode="normal" in="SourceGraphic" in2="effect1_dropShadow_5_4" result="shape"/>
</filter>
</defs>
</svg>
